# xmcd CD database file
#
# Track frame offsets:
#	150
#	17260
#	32662
#	51665
#	79837
#
# Disc length: 3268 seconds
#
# Revision: 4
# Processed by: cddbd v1.5.1PL0 Copyright (c) Steve Scherf et al.
# Submitted via: CDex 1.51
#
DISCID=340cc205
DTITLE=DJ Bobo - I Believe
DYEAR=2003
DGENRE=Dance
TTITLE0=I Believe (Radio Special Edit)
TTITLE1=I Believe (Pop Edit)
TTITLE2=I Believe (Club Edit)
TTITLE3=Let's Come Together (We Are Family)
TTITLE4=Data Track
EXTD=YEAR: 2003
EXTT0=
EXTT1=
EXTT2=
EXTT3=
EXTT4=
PLAYORDER=
